<?xml version="1.0" encoding="UTF-8"?>
<svg id="Layer_2" data-name="Layer 2" xmlns="http://www.w3.org/2000/svg" viewBox="0 0 158.11 158.95">
  <defs>
    <style>
      .cls-1 {
        fill: #25184e;
        fill-rule: evenodd;
      }
    </style>
  </defs>
  <g id="Layer_1-2" data-name="Layer 1">
    <g>
      <path class="cls-1" d="M4.02,32.25c4.78,5.81,13.86,7.11,19.25,1.86l8.66-8.43c5.39-5.24,6.65-13.44,1.86-19.25l-1.05-1.27C27.97-.65,18.89-1.95,13.5,3.3L4.84,11.72C-.56,16.96-1.81,25.16,2.97,30.97l1.05,1.28Z"/>
      <path class="cls-1" d="M6.17,92.66c5.32,5.32,14.08,5.37,19.34,0L91.87,24.88c5.26-5.37,5.32-14.02,0-19.34l-1.17-1.17c-5.32-5.32-14.08-5.37-19.34,0L5,72.15c-5.26,5.37-5.32,14.02,0,19.34l1.17,1.17Z"/>
      <path class="cls-1" d="M153.98,5.91l-1.17-1.17c-5.32-5.32-14.05-5.35-19.34,0L5.19,134.44c-5.29,5.35-5.32,14.02,0,19.34l1.17,1.17c5.32,5.32,14.05,5.35,19.34,0L153.98,25.25c5.29-5.35,5.32-14.02,0-19.34Z"/>
      <path class="cls-1" d="M154.12,133.73l-34.54-34.3-.58-.58c-5.32-5.32-14.04-5.34-19.34,0l-33.74,33.98c-5.64,5.68-5.62,14.85.03,20.5h0c5.65,5.65,14.88,5.64,20.51-.03l22.34-22.5c.33-.33.87-.33,1.2,0l23.61,23.45c5.34,5.3,14.02,5.32,19.34,0l1.17-1.17c5.32-5.32,5.34-14.04,0-19.34Z"/>
    </g>
  </g>
</svg>