<?xml version="1.0" encoding="UTF-8"?>
<svg
  id="Layer_1"
  data-name="Layer 1"
  xmlns="http://www.w3.org/2000/svg"
  xmlns:xlink="http://www.w3.org/1999/xlink"
  viewBox="0 0 1416 638"
>
  <defs>
    <style>
      .cls-1 {
        fill: none;
      }
      .cls-2,
      .cls-3 {
        fill: #fff;
      }
      .cls-2,
      .cls-4,
      .cls-5 {
        fill-rule: evenodd;
      }
      .cls-6,
      .cls-7 {
        fill: #332b74;
      }
      .cls-8 {
        clip-path: url(#clippath-1);
      }
      .cls-7 {
        opacity: 0.5;
      }
      .cls-9 {
        fill: url(#Degradado_sin_nombre_3-2);
      }
      .cls-10 {
        fill: url(#Degradado_sin_nombre_3-3);
      }
      .cls-11 {
        fill: url(#Degradado_sin_nombre_3);
      }
      .cls-12 {
        clip-path: url(#clippath);
      }
      .cls-4 {
        fill: url(#Degradado_sin_nombre_3-4);
      }
      .cls-5 {
        fill: url(#Degradado_sin_nombre_3-5);
      }
    </style>
    <clipPath id="clippath">
      <rect class="cls-1" y="0" width="1416" height="638"/>
    </clipPath>
    <linearGradient
      id="Degradado_sin_nombre_3"
      data-name="Degradado sin nombre 3"
      x1="99.49"
      y1="-49.33"
      x2="786.08"
      y2="200.15"
      gradientTransform="translate(126.41 -229.17) rotate(45)"
      gradientUnits="userSpaceOnUse"
    >
      <stop offset="0" stop-color="#b600ac"/>
      <stop offset=".15" stop-color="#b101aa"/>
      <stop offset=".32" stop-color="#a304a6"/>
      <stop offset=".5" stop-color="#8d09a0"/>
      <stop offset=".69" stop-color="#6e1097"/>
      <stop offset=".88" stop-color="#46198b"/>
      <stop offset="1" stop-color="#282083"/>
    </linearGradient>
    <clipPath id="clippath-1">
      <rect
        class="cls-1"
        x="-16.64"
        y="-300.35"
        width="1432.64"
        height="1173.78"
      />
    </clipPath>
    <linearGradient
      id="Degradado_sin_nombre_3-2"
      data-name="Degradado sin nombre 3"
      x1="622.22"
      y1="625.2"
      x2="1209.22"
      y2="625.2"
      gradientTransform="translate(710.29 -464.4) rotate(45)"
      xlink:href="#Degradado_sin_nombre_3"
    />
    <linearGradient
      id="Degradado_sin_nombre_3-3"
      data-name="Degradado sin nombre 3"
      x1="941"
      y1="625.2"
      x2="1528"
      y2="625.2"
      gradientTransform="translate(2549.51 194.36) rotate(135)"
      xlink:href="#Degradado_sin_nombre_3"
    />
    <linearGradient
      id="Degradado_sin_nombre_3-4"
      data-name="Degradado sin nombre 3"
      x1="43.52"
      y1="172.84"
      x2="1533.42"
      y2="172.84"
      gradientTransform="matrix(1,0,0,1,0,0)"
      xlink:href="#Degradado_sin_nombre_3"
    />
    <linearGradient
      id="Degradado_sin_nombre_3-5"
      data-name="Degradado sin nombre 3"
      x1="1244.22"
      y1="31.62"
      x2="655.26"
      y2="-412.32"
      gradientTransform="translate(152.44 243.94)"
      xlink:href="#Degradado_sin_nombre_3"
    />
  </defs>

  <g class="cls-12">
    <rect
      class="cls-6"
      x="-525.62"
      y="-300.35"
      width="1941.62"
      height="1197.68"
    />
    <rect
      class="cls-11"
      x="-19.68"
      y="-96.11"
      width="719.05"
      height="268.22"
      rx="134.11"
      ry="134.11"
      transform="translate(72.66 251.44) rotate(-45)"
    />
    <g class="cls-8">
      <rect
        class="cls-9"
        x="556.2"
        y="491.09"
        width="719.05"
        height="268.22"
        rx="134.11"
        ry="134.11"
        transform="translate(-173.87 830.63) rotate(-45)"
      />
      <rect
        class="cls-10"
        x="874.98"
        y="491.09"
        width="719.05"
        height="268.22"
        rx="134.11"
        ry="134.11"
        transform="translate(1665.34 1940.21) rotate(-135)"
      />
      <path
        class="cls-4"
        d="M1495.61-529.93l-11.1-11.1c-50.54-50.55-133.55-50.82-183.82,0L81.32,691.77c-50.27,50.83-50.55,133.27,0,183.82l11.1,11.1c50.55,50.55,133.54,50.82,183.81,0L1495.61-346.1c50.28-50.83,50.55-133.27,0-183.82Z"
      />
    </g>
    <path
      class="cls-5"
      d="M1248.14,38.01c0-110.54-89.61-200.14-200.14-200.14V238.15c110.54,0,200.14-89.61,200.14-200.14Z"
    />
  </g>

  <!-- Rounded-corner rectangle (modified here) -->
  <rect
    class="cls-7"
    width="1416"
    height="638"
    rx="30"
    ry="30"
  />

  <g>
    <g>
      <path
        class="cls-2"
        d="M235.97,259.58c6.02,7.31,17.44,8.94,24.22,2.35l10.9-10.6c6.78-6.6,8.36-16.91,2.35-24.22l-1.32-1.6c-6.01-7.3-17.44-8.94-24.22-2.35l-10.9,10.6c-6.78,6.6-8.36,16.91-2.35,24.22l1.32,1.6Z"
      />
      <path
        class="cls-2"
        d="M238.68,335.58c6.69,6.69,17.71,6.76,24.33,0l83.5-85.28c6.62-6.76,6.69-17.64,0-24.33l-1.47-1.47c-6.69-6.69-17.71-6.76-24.33,0l-83.5,85.28c-6.62,6.76-6.69,17.64,0,24.33l1.47,1.47Z"
      />
      <path
        class="cls-2"
        d="M424.65,226.45l-1.47-1.47c-6.69-6.69-17.68-6.73-24.33,0l-161.4,163.18c-6.65,6.73-6.69,17.64,0,24.33l1.47,1.47c6.69,6.69,17.68,6.73,24.33,0l161.4-163.18c6.66-6.73,6.69-17.64,0-24.33Z"
      />
      <path
        class="cls-2"
        d="M424.82,387.26l-43.46-43.16-.73-.73c-6.69-6.69-17.67-6.71-24.33,0l-43.16,43.46c-6.67,6.71-6.69,17.64,0,24.33l1.47,1.47c6.69,6.69,17.66,6.71,24.33,0l29.62-29.83,30.47,30.25c6.71,6.67,17.64,6.69,24.33,0l1.47-1.47c6.69-6.69,6.71-17.67,0-24.33Z"
      />
    </g>
    <path
      class="cls-3"
      d="M1128.05,312.92c5.13.04,9.61.96,13.46,2.74,3.84,1.78,7.05,4.2,9.61,7.23,2.56,3.03,4.49,6.44,5.77,10.25,1.28,3.77,1.92,7.69,1.92,11.71,0,4.02-.64,7.94-1.92,11.71-1.28,3.81-3.2,7.19-5.77,10.25-2.56,3.03-5.77,5.45-9.61,7.23-3.85,1.78-8.33,2.7-13.46,2.74-4.34,0-8.4-.75-12.18-2.17-3.77-1.46-7.05-3.56-9.89-6.3-2.85-2.78-5.09-6.12-6.66-10.08-1.6-3.99-2.42-8.47-2.46-13.49.04-5.02.86-9.5,2.46-13.46,1.57-3.92,3.81-7.26,6.66-10,2.85-2.7,6.12-4.81,9.89-6.23,3.77-1.43,7.83-2.14,12.18-2.14M1159.24,306.73c-2.03-3.52-4.77-6.55-8.22-9.08-3.45-2.56-7.33-4.52-11.68-5.91-4.34-1.39-8.9-2.1-13.64-2.1-7.72-.04-14.91,1.1-21.54,3.42-6.66,2.31-12.46,5.8-17.44,10.43-4.98,4.63-8.86,10.4-11.68,17.3-2.78,6.87-4.2,14.88-4.24,23.96.04,9.26,1.39,17.37,4.09,24.35,2.71,7.01,6.48,12.85,11.36,17.55,4.84,4.74,10.57,8.26,17.16,10.61,6.59,2.35,13.81,3.49,21.65,3.45,2.99-.07,6.12-.46,9.47-1.25,3.31-.78,6.58-1.96,9.79-3.49,3.2-1.53,6.09-3.45,8.72-5.73,2.6-2.31,4.66-5.02,6.2-8.12l1.28,15.38h24.56s0-105.3,0-105.3h-24.99s-.85,14.53-.85,14.53ZM1054.15,397.5v-55.32c-.04-8.29-1.21-15.63-3.49-22.04-2.28-6.41-5.48-11.82-9.54-16.23-4.06-4.38-8.79-7.72-14.17-10-5.41-2.28-11.21-3.42-17.44-3.42-6.55,0-12.64,1.32-18.26,3.99-5.59,2.64-11.07,6.59-16.34,11.82l-1.71-14.31h-23.28s0,105.52,0,105.52h25.84s0-53.83,0-53.83c0-4.02.68-7.83,1.96-11.36,1.28-3.56,3.1-6.69,5.48-9.4,2.38-2.7,5.23-4.84,8.51-6.37,3.27-1.53,6.94-2.31,10.96-2.35,5.56.04,10.22,1.28,13.99,3.74,3.77,2.45,6.62,5.8,8.54,10.04,1.92,4.2,2.88,9.01,2.88,14.42v55.11s26.06,0,26.06,0ZM898.65,262.51c.04,3.38.82,6.2,2.28,8.44,1.46,2.28,3.38,3.95,5.7,5.09,2.31,1.14,4.81,1.67,7.4,1.67,2.6,0,5.09-.53,7.4-1.67,2.32-1.14,4.24-2.81,5.7-5.09,1.46-2.24,2.24-5.06,2.28-8.44-.04-3.38-.82-6.19-2.28-8.47-1.46-2.24-3.38-3.92-5.7-5.06-2.31-1.14-4.81-1.71-7.4-1.71-2.6,0-5.09.57-7.4,1.71-2.31,1.14-4.24,2.81-5.7,5.06-1.46,2.28-2.24,5.09-2.28,8.47ZM927.06,291.77v105.73s-26.06,0-26.06,0v-105.73s26.06,0,26.06,0ZM805.73,397.5v-56.39c0-3.49.53-6.8,1.6-9.93,1.03-3.13,2.56-5.87,4.56-8.3,1.96-2.42,4.38-4.34,7.19-5.73,2.81-1.39,5.98-2.06,9.5-2.1,3.52.04,6.55.71,9.04,2.06,2.53,1.32,4.59,3.17,6.2,5.55,1.57,2.35,2.74,5.06,3.52,8.15.75,3.06,1.1,6.37,1.1,9.86v56.82s26.06,0,26.06,0v-56.82c0-10.57-1.64-19.58-4.91-27.02-3.31-7.44-8.26-13.1-14.84-17.02-6.62-3.95-14.92-5.91-24.88-5.95-4.56-.04-8.94.5-13.14,1.68-4.17,1.14-8.12,3.1-11.82,5.91-3.74,2.81-7.15,6.69-10.29,11.64-2.03-4.81-4.66-8.65-7.94-11.53-3.27-2.92-6.91-4.99-10.89-6.27-3.99-1.25-8.12-1.89-12.35-1.85-3.38-.04-6.87.43-10.43,1.39-3.56.96-6.83,2.49-9.9,4.63-3.06,2.14-5.55,4.95-7.44,8.51l-1.92-12.82h-24.14s0,105.52,0,105.52h26.06s0-56.39,0-56.39c0-3.49.5-6.83,1.53-10,1-3.17,2.46-5.98,4.38-8.44,1.96-2.49,4.31-4.45,7.08-5.87,2.74-1.42,5.91-2.14,9.43-2.17,3.6.04,6.73.75,9.4,2.17,2.71,1.42,4.95,3.38,6.77,5.87,1.81,2.46,3.17,5.27,4.06,8.44.89,3.17,1.35,6.51,1.35,10v56.39s26.06,0,26.06,0ZM630.58,312.92c5.13.04,9.61.96,13.46,2.74,3.85,1.78,7.05,4.2,9.61,7.23,2.56,3.03,4.49,6.44,5.77,10.25,1.28,3.77,1.92,7.69,1.92,11.71,0,4.02-.64,7.94-1.92,11.71-1.28,3.81-3.2,7.19-5.77,10.25-2.56,3.03-5.77,5.45-9.61,7.23-3.84,1.78-8.33,2.7-13.46,2.74-4.34,0-8.4-.75-12.17-2.17-3.77-1.46-7.05-3.56-9.89-6.3-2.85-2.78-5.09-6.12-6.66-10.08-1.6-3.99-2.42-8.47-2.46-13.49.04-5.02.86-9.5,2.46-13.46,1.57-3.92,3.81-7.26,6.66-10,2.85-2.7,6.12-4.81,9.89-6.23,3.77-1.43,7.83-2.14,12.17-2.14ZM661.77,306.73c-2.03-3.52-4.77-6.55-8.22-9.08-3.45-2.56-7.33-4.52-11.68-5.91-4.34-1.39-8.9-2.1-13.64-2.1-7.72-.04-14.91,1.1-21.54,3.42-6.66,2.31-12.46,5.8-17.45,10.43-4.98,4.63-8.86,10.4-11.68,17.3-2.78,6.87-4.2,14.88-4.24,23.96.04,9.26,1.39,17.37,4.09,24.35,2.71,7.01,6.48,12.85,11.36,17.55,4.84,4.74,10.57,8.26,17.16,10.61,6.59,2.35,13.81,3.49,21.65,3.45,2.99-.07,6.12-.46,9.47-1.25,3.31-.78,6.58-1.96,9.79-3.49,3.2-1.53,6.09-3.45,8.72-5.73,2.6-2.31,4.66-5.02,6.2-8.12l1.28,15.38h24.56s0-105.3,0-105.3h-24.99s-.85,14.53-.85,14.53ZM468.46,248.2v149.3s26.06,0,26.06,0v-47.63s41.23,47.63,41.23,47.63h31.4s0-1.92,0-1.92l-48.91-53.83,42.93-48.06v-1.5s-31.18,0-31.18,0l-35.46,42.29v-86.29s-26.06,0-26.06,0Z"
    />
  </g>
</svg>
