<?xml version="1.0" encoding="UTF-8"?>
<svg xmlns="http://www.w3.org/2000/svg" xmlns:xlink="http://www.w3.org/1999/xlink" viewBox="0 0 1416 638">
  <defs>
    <style>
      .cls-1, .cls-2 {
        fill: none;
      }

      .cls-3, .cls-4 {
        fill: #fff;
      }

      .cls-3, .cls-5 {
        fill-rule: evenodd;
      }

      .cls-2 {
        stroke: #fff;
        stroke-miterlimit: 10;
      }

      .cls-6 {
        fill: url(#linear-gradient);
      }

      .cls-7 {
        isolation: isolate;
      }

      .cls-8 {
        clip-path: url(#clippath-1);
      }

      .cls-9 {
        clip-path: url(#clippath-2);
      }

      .cls-10 {
        mix-blend-mode: overlay;
      }

      .cls-11 {
        fill: url(#Degradado_sin_nombre_3);
      }

      .cls-12 {
        clip-path: url(#clippath);
      }

      .cls-5 {
        fill: url(#Degradado_sin_nombre_3-2);
      }
    </style>
    <clipPath id="clippath">
      <rect class="cls-1" x="-1466" y="0" width="1416" height="638"/>
    </clipPath>
    <clipPath id="clippath-1">
      <rect class="cls-1" x="-1482.64" y="-300.35" width="1432.64" height="1173.78"/>
    </clipPath>
    <linearGradient id="Degradado_sin_nombre_3" data-name="Degradado sin nombre 3" x1="-525" y1="625.2" x2="62" y2="625.2" gradientTransform="translate(46.89 1230.97) rotate(135)" gradientUnits="userSpaceOnUse">
      <stop offset="0" stop-color="#b600ac"/>
      <stop offset=".15" stop-color="#b101aa"/>
      <stop offset=".32" stop-color="#a304a6"/>
      <stop offset=".5" stop-color="#8d09a0"/>
      <stop offset=".69" stop-color="#6e1097"/>
      <stop offset=".88" stop-color="#46198b"/>
      <stop offset="1" stop-color="#282083"/>
    </linearGradient>
    <linearGradient id="Degradado_sin_nombre_3-2" data-name="Degradado sin nombre 3" x1="-1422.48" y1="172.84" x2="67.42" y2="172.84" gradientTransform="matrix(1,0,0,1,0,0)" xlink:href="#Degradado_sin_nombre_3"/>
    <clipPath id="clippath-2">
      <rect class="cls-1" y="0" width="1416" height="638" rx="53.46" ry="53.46"/>
    </clipPath>
    <linearGradient id="linear-gradient" x1="196.57" y1="-166.67" x2="1199.07" y2="785.34" gradientUnits="userSpaceOnUse">
      <stop offset="0" stop-color="#490380"/>
      <stop offset="1" stop-color="#32015d"/>
    </linearGradient>
  </defs>
  <g class="cls-7">
    <g id="Layer_1" data-name="Layer 1">
      <g class="cls-12">
        <g class="cls-8">
          <rect class="cls-11" x="-591.02" y="491.09" width="719.05" height="268.22" rx="134.11" ry="134.11" transform="translate(-837.27 903.59) rotate(-135)"/>
          <path class="cls-5" d="M29.61-529.93l-11.1-11.1c-50.54-50.55-133.55-50.82-183.82,0L-1384.68,691.77c-50.27,50.83-50.55,133.27,0,183.82l11.1,11.1c50.55,50.55,133.54,50.82,183.81,0L29.61-346.1c50.28-50.83,50.55-133.27,0-183.82Z"/>
        </g>
      </g>
      <g class="cls-9">
        <rect class="cls-6" y="0" width="1416" height="638" rx="53.46" ry="53.46"/>
        <g class="cls-10">
          <path class="cls-2" d="M1416,0h0c0,186.04-150.81,336.85-336.85,336.85H0"/>
          <line class="cls-2" x1="260.43" y1="0" x2="260.43" y2="638"/>
          <path class="cls-2" d="M1089.11,638c-2.83-13.7-4.31-27.9-4.31-42.44,0-115.39,93.55-208.94,208.94-208.94v251.38"/>
        </g>
        <g>
          <g>
            <g>
              <path class="cls-3" d="M633.86,188.3c4.74,5.76,13.74,7.05,19.08,1.85l8.59-8.35c5.34-5.2,6.59-13.32,1.85-19.08l-1.04-1.26c-4.74-5.75-13.74-7.04-19.08-1.85l-8.59,8.35c-5.34,5.2-6.59,13.33-1.85,19.08l1.04,1.26Z"/>
              <path class="cls-3" d="M635.99,248.18c5.27,5.27,13.95,5.33,19.17,0l65.78-67.18c5.22-5.33,5.27-13.9,0-19.17l-1.16-1.16c-5.27-5.27-13.95-5.33-19.17,0l-65.78,67.18c-5.21,5.33-5.27,13.9,0,19.17l1.16,1.16Z"/>
              <path class="cls-3" d="M782.5,162.2l-1.16-1.16c-5.27-5.27-13.93-5.3-19.17,0l-127.16,128.56c-5.24,5.3-5.27,13.9,0,19.17l1.16,1.16c5.27,5.27,13.93,5.3,19.17,0l127.16-128.56c5.24-5.3,5.27-13.9,0-19.17Z"/>
            </g>
            <path class="cls-3" d="M782.64,288.89l-34.24-34-.58-.58c-5.27-5.27-13.92-5.29-19.17,0l-33.44,33.68c-5.59,5.63-5.57,14.71.03,20.32h0c5.6,5.6,14.75,5.59,20.33-.03l22.14-22.3c.33-.33.86-.33,1.19,0l23.41,23.24c5.29,5.25,13.9,5.27,19.17,0l1.16-1.16c5.27-5.27,5.29-13.92,0-19.17Z"/>
          </g>
          <path class="cls-4" d="M923.95,418.73c3.67.03,6.89.69,9.65,1.96,2.76,1.28,5.05,3.01,6.89,5.18,1.84,2.17,3.22,4.62,4.13,7.35.92,2.71,1.38,5.51,1.38,8.4,0,2.88-.46,5.69-1.38,8.39-.92,2.73-2.3,5.16-4.13,7.35-1.84,2.17-4.13,3.9-6.89,5.18-2.76,1.28-5.97,1.94-9.65,1.96-3.11,0-6.02-.54-8.73-1.56-2.7-1.05-5.05-2.55-7.09-4.52-2.04-1.99-3.65-4.39-4.77-7.22-1.15-2.86-1.74-6.07-1.76-9.67.03-3.6.61-6.81,1.76-9.65,1.12-2.81,2.73-5.2,4.77-7.17,2.04-1.94,4.39-3.44,7.09-4.46,2.71-1.02,5.61-1.53,8.73-1.53M946.3,414.29c-1.46-2.53-3.42-4.7-5.89-6.51-2.48-1.84-5.26-3.24-8.37-4.24-3.11-1-6.38-1.51-9.77-1.51-5.54-.03-10.69.79-15.44,2.45-4.77,1.66-8.93,4.16-12.5,7.48-3.57,3.32-6.35,7.45-8.37,12.4-1.99,4.93-3.01,10.67-3.04,17.17.03,6.63.99,12.45,2.93,17.45,1.94,5.03,4.65,9.21,8.14,12.58,3.47,3.39,7.58,5.92,12.3,7.6,4.72,1.69,9.9,2.5,15.51,2.48,2.14-.05,4.39-.33,6.79-.89,2.37-.56,4.72-1.4,7.02-2.5,2.3-1.1,4.36-2.48,6.25-4.11,1.86-1.66,3.34-3.6,4.44-5.82l.92,11.02h17.61s0-75.48,0-75.48h-17.91s-.61,10.41-.61,10.41ZM870.97,479.36v-39.65c-.03-5.95-.87-11.2-2.5-15.8-1.63-4.59-3.93-8.47-6.84-11.63-2.91-3.14-6.3-5.54-10.16-7.17-3.88-1.63-8.04-2.45-12.5-2.45-4.7,0-9.06.94-13.09,2.86-4.01,1.89-7.94,4.72-11.71,8.47l-1.23-10.26h-16.69s0,75.63,0,75.63h18.52s0-38.58,0-38.58c0-2.88.48-5.61,1.4-8.14.92-2.55,2.22-4.8,3.93-6.74,1.71-1.94,3.75-3.47,6.1-4.57,2.35-1.1,4.98-1.66,7.86-1.68,3.98.03,7.32.92,10.03,2.68,2.71,1.76,4.75,4.16,6.12,7.2,1.38,3.01,2.07,6.46,2.07,10.33v39.5s18.68,0,18.68,0ZM759.52,382.6c.03,2.43.59,4.44,1.63,6.05,1.05,1.63,2.42,2.83,4.08,3.65,1.66.82,3.44,1.2,5.31,1.2,1.86,0,3.65-.38,5.31-1.2,1.66-.82,3.04-2.02,4.08-3.65,1.05-1.61,1.61-3.62,1.63-6.05-.03-2.42-.59-4.44-1.63-6.07-1.05-1.61-2.42-2.81-4.08-3.62-1.66-.82-3.44-1.22-5.31-1.22-1.86,0-3.65.41-5.31,1.22-1.66.82-3.04,2.02-4.08,3.62-1.05,1.63-1.61,3.65-1.63,6.07ZM779.88,403.58v75.78s-18.68,0-18.68,0v-75.78s18.68,0,18.68,0ZM692.92,479.36v-40.42c0-2.5.38-4.87,1.15-7.12.74-2.25,1.84-4.21,3.27-5.95,1.4-1.74,3.14-3.11,5.16-4.11,2.01-.99,4.29-1.48,6.81-1.5,2.53.03,4.7.51,6.48,1.48,1.81.94,3.29,2.27,4.44,3.98,1.12,1.69,1.96,3.62,2.53,5.84.54,2.19.79,4.57.79,7.07v40.72s18.68,0,18.68,0v-40.72c0-7.58-1.18-14.04-3.52-19.37-2.37-5.33-5.92-9.39-10.64-12.2-4.75-2.83-10.69-4.23-17.84-4.26-3.27-.03-6.4.36-9.42,1.2-2.99.82-5.82,2.22-8.47,4.23-2.68,2.02-5.13,4.8-7.37,8.35-1.45-3.44-3.34-6.2-5.69-8.27-2.35-2.09-4.95-3.57-7.81-4.49-2.86-.89-5.82-1.35-8.85-1.33-2.43-.03-4.93.31-7.48,1-2.55.69-4.9,1.78-7.09,3.32-2.19,1.53-3.98,3.55-5.33,6.1l-1.38-9.19h-17.3s0,75.63,0,75.63h18.68s0-40.42,0-40.42c0-2.5.36-4.9,1.1-7.17.71-2.27,1.76-4.29,3.14-6.05,1.4-1.78,3.09-3.19,5.08-4.21,1.96-1.02,4.24-1.53,6.76-1.56,2.58.03,4.82.54,6.74,1.56,1.94,1.02,3.55,2.42,4.85,4.21,1.3,1.76,2.27,3.78,2.91,6.05.64,2.27.97,4.67.97,7.17v40.42s18.68,0,18.68,0ZM567.38,418.73c3.67.03,6.89.69,9.64,1.96,2.76,1.28,5.05,3.01,6.89,5.18,1.84,2.17,3.22,4.62,4.13,7.35.92,2.71,1.38,5.51,1.38,8.4,0,2.88-.46,5.69-1.38,8.39-.92,2.73-2.3,5.16-4.13,7.35-1.84,2.17-4.13,3.9-6.89,5.18-2.76,1.28-5.97,1.94-9.64,1.96-3.11,0-6.02-.54-8.73-1.56-2.7-1.05-5.05-2.55-7.09-4.52-2.04-1.99-3.65-4.39-4.77-7.22-1.15-2.86-1.74-6.07-1.76-9.67.03-3.6.61-6.81,1.76-9.65,1.12-2.81,2.73-5.2,4.77-7.17,2.04-1.94,4.39-3.44,7.09-4.46,2.71-1.02,5.61-1.53,8.73-1.53ZM589.73,414.3c-1.46-2.53-3.42-4.7-5.89-6.51-2.48-1.84-5.26-3.24-8.37-4.24-3.11-1-6.38-1.51-9.77-1.51-5.54-.03-10.69.79-15.44,2.45-4.77,1.66-8.93,4.16-12.5,7.48-3.57,3.32-6.35,7.45-8.37,12.4-1.99,4.93-3.01,10.67-3.04,17.17.03,6.63.99,12.45,2.93,17.45,1.94,5.03,4.65,9.21,8.14,12.58,3.47,3.39,7.58,5.92,12.3,7.6,4.72,1.69,9.9,2.5,15.51,2.48,2.14-.05,4.39-.33,6.79-.89,2.37-.56,4.72-1.4,7.02-2.5,2.3-1.1,4.36-2.48,6.25-4.11,1.86-1.66,3.34-3.6,4.44-5.82l.92,11.02h17.61s0-75.48,0-75.48h-17.91s-.61,10.41-.61,10.41ZM451.18,372.35v107.02s18.68,0,18.68,0v-34.14s29.55,34.14,29.55,34.14h22.51v-1.38s-35.06-38.58-35.06-38.58l30.77-34.45v-1.07s-22.35,0-22.35,0l-25.41,30.31v-61.85s-18.68,0-18.68,0Z"/>
        </g>
      </g>
    </g>
  </g>
</svg>