<?xml version="1.0" encoding="UTF-8"?>
<svg id="Layer_1" data-name="Layer 1" xmlns="http://www.w3.org/2000/svg" xmlns:xlink="http://www.w3.org/1999/xlink" viewBox="0 0 1416 638">
  <defs>
    <style>
      .cls-1 {
        fill: none;
      }

      .cls-2 {
        fill: #23194b;
      }

      .cls-3 {
        fill: url(#Degradado_sin_nombre_16-3);
      }

      .cls-3, .cls-4, .cls-5, .cls-6 {
        fill-rule: evenodd;
      }

      .cls-4 {
        fill: url(#Degradado_sin_nombre_16-2);
      }

      .cls-5 {
        fill: url(#Degradado_sin_nombre_16-4);
      }

      .cls-7 {
        fill: url(#linear-gradient);
      }

      .cls-8 {
        opacity: .15;
      }

      .cls-6 {
        fill: url(#Degradado_sin_nombre_16);
      }

      .cls-9 {
        clip-path: url(#clippath);
      }
    </style>
    <clipPath id="clippath">
      <rect class="cls-1" width="1416" height="638"/>
    </clipPath>
    <linearGradient id="linear-gradient" x1="792.37" y1="-438.69" x2="792.37" y2="1681.98" gradientTransform="translate(-8)" gradientUnits="userSpaceOnUse">
      <stop offset=".3" stop-color="#9d52ff" stop-opacity="0"/>
      <stop offset=".32" stop-color="#9d52ff" stop-opacity=".05"/>
      <stop offset=".36" stop-color="#9d52ff" stop-opacity=".19"/>
      <stop offset=".41" stop-color="#9d52ff" stop-opacity=".41"/>
      <stop offset=".48" stop-color="#9d52ff" stop-opacity=".71"/>
      <stop offset=".54" stop-color="#9d52ff"/>
    </linearGradient>
    <linearGradient id="Degradado_sin_nombre_16" data-name="Degradado sin nombre 16" x1="520" y1="114.57" x2="564.14" y2="191.01" gradientUnits="userSpaceOnUse">
      <stop offset="0" stop-color="#c000b5"/>
      <stop offset=".23" stop-color="#bd00b4"/>
      <stop offset=".39" stop-color="#b302b1"/>
      <stop offset=".53" stop-color="#a405ad"/>
      <stop offset=".66" stop-color="#8e0aa7"/>
      <stop offset=".78" stop-color="#7110a0"/>
      <stop offset=".9" stop-color="#4e1797"/>
      <stop offset="1" stop-color="#28208d"/>
    </linearGradient>
    <linearGradient id="Degradado_sin_nombre_16-2" data-name="Degradado sin nombre 16" x1="586.99" y1="169.77" x2="661.53" y2="298.88" xlink:href="#Degradado_sin_nombre_16"/>
    <linearGradient id="Degradado_sin_nombre_16-3" data-name="Degradado sin nombre 16" x1="656.69" y1="228.66" x2="762.19" y2="411.38" xlink:href="#Degradado_sin_nombre_16"/>
    <linearGradient id="Degradado_sin_nombre_16-4" data-name="Degradado sin nombre 16" x1="732.03" y1="389.11" x2="835.35" y2="568.07" xlink:href="#Degradado_sin_nombre_16"/>
  </defs>
  <rect class="cls-2" width="1416" height="638"/>
  <g class="cls-8">
    <g class="cls-9">
      <path class="cls-7" d="M161.33,346.99c45.46,45.46,120.32,45.94,165.31,0L893.9-232.35c44.98-45.94,45.46-119.85,0-165.31l-9.98-9.98c-45.45-45.46-120.34-45.93-165.31,0L151.35,171.7c-44.97,45.93-45.46,119.85,0,165.31l9.98,9.98ZM142.97-169.39c40.87,49.63,118.45,60.76,164.54,15.94l74.06-72.03c46.09-44.82,56.8-114.91,15.94-164.54l-8.97-10.89c-40.85-49.62-118.46-60.75-164.53-15.94l-74.06,72.02c-46.08,44.81-56.8,114.91-15.94,164.54l8.97,10.9ZM1424.79-394.47l-9.98-9.98c-45.45-45.46-120.1-45.7-165.31,0L152.96,704.18c-45.21,45.71-45.46,119.85,0,165.31l9.99,9.98c45.46,45.46,120.09,45.71,165.3,0L1424.79-229.16c45.22-45.71,45.46-119.85,0-165.31ZM1425.98,698.05l-295.28-293.2-4.99-4.99c-45.45-45.44-120.03-45.61-165.31,0l-293.2,295.28c-45.28,45.61-45.46,119.85,0,165.31l9.98,9.98c45.47,45.46,120.01,45.62,165.31,0l201.2-202.63,207,205.54c45.62,45.3,119.85,45.46,165.3,0l9.98-9.98c45.44-45.45,45.6-120.03,0-165.31Z"/>
    </g>
  </g>
  <g>
    <path class="cls-6" d="M502.78,189.83c13.08,15.88,37.9,19.44,52.64,5.1l23.7-23.05c14.75-14.34,18.17-36.77,5.1-52.64l-2.87-3.49c-13.07-15.88-37.9-19.44-52.64-5.1l-23.7,23.04c-14.74,14.34-18.17,36.77-5.1,52.65l2.87,3.49Z"/>
    <path class="cls-4" d="M508.66,355.05c14.54,14.55,38.5,14.7,52.89,0l181.5-185.36c14.39-14.7,14.55-38.35,0-52.89l-3.19-3.19c-14.54-14.54-38.5-14.7-52.89,0l-181.5,185.36c-14.39,14.7-14.55,38.35,0,52.89l3.19,3.19Z"/>
    <path class="cls-3" d="M912.91,117.81l-3.19-3.19c-14.54-14.54-38.43-14.62-52.89,0l-350.85,354.71c-14.46,14.62-14.54,38.35,0,52.89l3.2,3.19c14.54,14.55,38.42,14.62,52.89,0l350.85-354.71c14.47-14.62,14.55-38.35,0-52.89Z"/>
    <path class="cls-5" d="M913.29,467.37l-94.47-93.81-1.6-1.6c-14.54-14.54-38.4-14.59-52.89,0l-92.27,92.93c-15.42,15.53-15.38,40.6.09,56.08h0c15.45,15.46,40.69,15.42,56.09-.09l61.1-61.53c.9-.91,2.37-.91,3.28-.01l64.58,64.13c14.6,14.49,38.35,14.54,52.89,0l3.19-3.19c14.54-14.54,14.59-38.4,0-52.89Z"/>
  </g>
</svg>